<?xml version="1.0" encoding="UTF-8" standalone="no"?>
<!-- Created with Inkscape (http://www.inkscape.org/) -->

<svg
   width="1098.7657mm"
   height="247.7229mm"
   viewBox="0 0 1098.7658 247.7229"
   version="1.1"
   id="svg359"
   xml:space="preserve"
   sodipodi:docname="ecpl_pcb_logo.svg"
   inkscape:version="1.2.2 (732a01da63, 2022-12-09, custom)"
   xmlns:inkscape="http://www.inkscape.org/namespaces/inkscape"
   xmlns:sodipodi="http://sodipodi.sourceforge.net/DTD/sodipodi-0.dtd"
   xmlns="http://www.w3.org/2000/svg"
   xmlns:svg="http://www.w3.org/2000/svg"><sodipodi:namedview
     id="namedview21"
     pagecolor="#ffffff"
     bordercolor="#000000"
     borderopacity="0.25"
     inkscape:showpageshadow="2"
     inkscape:pageopacity="0.0"
     inkscape:pagecheckerboard="0"
     inkscape:deskcolor="#d1d1d1"
     inkscape:document-units="mm"
     showgrid="false"
     inkscape:zoom="0.44611175"
     inkscape:cx="684.80599"
     inkscape:cy="413.5735"
     inkscape:window-width="1920"
     inkscape:window-height="1016"
     inkscape:window-x="0"
     inkscape:window-y="27"
     inkscape:window-maximized="1"
     inkscape:current-layer="svg359" /><defs
     id="defs356"><pattern
       patternUnits="userSpaceOnUse"
       width="756.44842"
       height="756.44874"
       patternTransform="translate(208.03827,79.545271)"
       id="pattern10355"><path
         id="path7795"
         d="m 1.2425575,556.79628 v 4.96033 H 110.6172 c 0.99454,4.87102 4.79909,8.67557 9.6701,9.67011 6.71129,1.36902 13.26137,-2.95884 14.63042,-9.67011 1.36906,-6.7113 -2.95884,-13.26138 -9.67011,-14.63036 -6.71129,-1.36906 -13.26137,2.95877 -14.63041,9.67003 z M 204.61494,675.8435 v 4.96037 h 302.82633 c 0.99458,4.87102 4.79909,8.67553 9.67015,9.67007 6.71126,1.36906 13.26137,-2.95884 14.6304,-9.67007 1.36902,-6.71131 -2.95885,-13.26142 -9.67008,-14.6304 -6.71134,-1.36906 -13.26141,2.9588 -14.63047,9.67003 z M 755.20835,561.75661 v -4.96033 H 650.79399 c -0.99455,-4.87097 -4.79906,-8.67552 -9.67008,-9.67003 -6.71127,-1.36906 -13.26138,2.95877 -14.6304,9.67003 -1.36906,6.71131 2.95881,13.26138 9.67011,14.63044 6.71123,1.36902 13.26135,-2.95884 14.63037,-9.67011 z m 0,39.68243 v -4.96032 H 650.79399 c -0.99455,-4.87102 -4.79906,-8.67553 -9.67008,-9.67008 -6.71127,-1.36905 -13.26138,2.95881 -14.6304,9.67008 -1.36906,6.71127 2.95881,13.26138 9.67011,14.6304 6.71123,1.36905 13.26135,-2.95881 14.63037,-9.67008 z M 452.38194,318.70181 c -0.99454,-4.87102 -4.79905,-8.67553 -9.67007,-9.67011 -6.71131,-1.36902 -13.26142,2.95884 -14.6304,9.67011 -1.36906,6.71134 2.9588,13.26142 9.67003,14.63047 6.71131,1.36903 13.26142,-2.95884 14.63044,-9.67014 h 213.78894 c 0.99458,4.87101 4.79913,8.6756 9.67015,9.67014 6.71131,1.36903 13.26142,-2.95884 14.63044,-9.67014 1.36905,-6.71131 -2.95885,-13.26138 -9.67011,-14.63044 -6.71135,-1.36902 -13.26138,2.95884 -14.63048,9.67011 z M 1.2425575,199.65459 v 4.96031 H 31.252377 c 0.994541,4.87102 4.799093,8.67558 9.670106,9.67013 6.711288,1.36904 13.261368,-2.95885 14.630412,-9.67013 1.369039,-6.71128 -2.958823,-13.26137 -9.670107,-14.6304 -6.711288,-1.36904 -13.261368,2.95881 -14.630411,9.67009 0,0 -30.0098195,0 -30.0098195,0 z M 705.85335,283.97974 c 0.99454,4.87098 4.79905,8.67555 9.67011,9.67009 6.71131,1.36904 13.26138,-2.95883 14.6304,-9.67009 1.36906,-6.71131 -2.9588,-13.2614 -9.67007,-14.63043 -6.71135,-1.36905 -13.26142,2.95883 -14.63044,9.67009 H 492.06437 c -0.99454,-4.87102 -4.79909,-8.67555 -9.67011,-9.67009 -6.7113,-1.36905 -13.26138,2.95883 -14.6304,9.67009 -1.36902,6.71131 2.95881,13.26139 9.67008,14.63043 6.7113,1.36904 13.26137,-2.95883 14.63043,-9.67009 z M 641.12142,1.2425537 h -4.96033 V 31.25238 c -4.87102,0.994542 -8.67553,4.79909 -9.67007,9.670107 -1.36906,6.711281 2.9588,13.261361 9.67007,14.630404 6.71135,1.369047 13.26138,-2.958819 14.63048,-9.670103 1.36902,-6.711292 -2.95888,-13.261368 -9.67015,-14.630408 z M 482.39177,412.69957 c 4.87102,-0.99455 8.67556,-4.79906 9.67015,-9.67011 1.36902,-6.71127 -2.95884,-13.26138 -9.67015,-14.6304 -6.71131,-1.36906 -13.26138,2.95884 -14.63044,9.67007 -1.36898,6.71131 2.95884,13.26142 9.67011,14.63044 v 134.42415 c -4.87098,0.99458 -8.67553,4.79909 -9.67011,9.67007 -1.36898,6.71135 2.95884,13.26142 9.67011,14.63048 6.71135,1.36902 13.26138,-2.95885 14.63048,-9.67015 1.36902,-6.71131 -2.95884,-13.26138 -9.67015,-14.6304 z M 611.10914,45.887747 c 1.36905,-6.711288 -2.95885,-13.261365 -9.67015,-14.630412 -6.71131,-1.369039 -13.26138,2.958823 -14.63037,9.670111 -1.36905,6.711284 2.95877,13.261364 9.67004,14.630403 V 204.6149 h 158.72969 v -4.96031 H 601.43899 V 55.557849 c 4.87105,-0.994537 8.67556,-4.799089 9.67015,-9.670102 z m 39.68243,39.682409 c 1.36902,-6.711292 -2.95888,-13.261369 -9.67015,-14.630412 -6.71131,-1.369039 -13.26142,2.958822 -14.6304,9.670111 -1.36906,6.711284 2.9588,13.261364 9.67007,14.630407 v 69.692228 h 119.04726 v -4.96031 H 641.12142 V 95.240262 c 4.87102,-0.994541 8.67556,-4.799093 9.67015,-9.670106 z M 323.66216,333.33474 c 4.87101,-0.99454 8.67552,-4.79909 9.67011,-9.67011 1.36902,-6.71131 -2.95885,-13.26138 -9.67011,-14.63044 -6.71131,-1.36902 -13.26138,2.95884 -14.6304,9.67011 -1.3691,6.71131 2.9588,13.26142 9.67007,14.63044 v 188.73948 h 39.68239 v 25.0495 c -4.87098,0.99458 -8.67553,4.79909 -9.67011,9.67007 -1.36906,6.71135 2.95884,13.26142 9.67011,14.63048 6.71135,1.36902 13.26142,-2.95885 14.63048,-9.67015 1.36898,-6.71131 -2.95884,-13.26138 -9.67015,-14.6304 V 517.11389 H 323.66216 Z M 279.01943,279.0194 v 119.04723 h -64.73189 c -0.99458,-4.87098 -4.79913,-8.67549 -9.67015,-9.67007 -6.7113,-1.36902 -13.26138,2.95884 -14.63043,9.67007 -1.36902,6.71131 2.95884,13.26142 9.67014,14.63044 6.71131,1.36906 13.26138,-2.95884 14.63044,-9.67007 h 69.69222 V 283.97974 h 25.0495 c 0.99455,4.87098 4.79906,8.67555 9.67007,9.67009 6.71131,1.36904 13.26142,-2.95883 14.6304,-9.67009 1.3691,-6.71131 -2.9588,-13.2614 -9.67003,-14.63043 -6.71131,-1.36905 -13.26142,2.95883 -14.63044,9.67009 0,0 -30.00983,0 -30.00983,0 z M 442.70937,601.43904 V 412.69957 c 4.87102,-0.99455 8.67553,-4.79906 9.67011,-9.67011 1.36903,-6.71127 -2.9588,-13.26138 -9.67011,-14.6304 -6.7113,-1.36906 -13.26141,2.95884 -14.63043,9.67007 -1.36902,6.71131 2.95884,13.26142 9.67007,14.63044 V 596.47872 H 293.65237 c -0.99459,-4.87102 -4.79913,-8.67553 -9.67015,-9.67008 -6.71131,-1.36905 -13.26138,2.95881 -14.63044,9.67008 -1.36898,6.71127 2.95884,13.26138 9.67015,14.6304 6.71131,1.36905 13.26138,-2.95881 14.63044,-9.67008 z M 279.01943,442.70939 v 119.04722 h 30.00983 c 0.99455,4.87102 4.79906,8.67557 9.67007,9.67011 6.71131,1.36902 13.26142,-2.95884 14.6304,-9.67011 1.3691,-6.7113 -2.9588,-13.26138 -9.67003,-14.63036 -6.71131,-1.36906 -13.26142,2.95877 -14.63044,9.67003 h -25.0495 V 437.74907 h -30.00982 c -0.99459,-4.87098 -4.7991,-8.67553 -9.67015,-9.67011 -6.71131,-1.36899 -13.26138,2.95884 -14.6304,9.67011 -1.36906,6.7113 2.9588,13.26138 9.67011,14.63043 6.7113,1.36902 13.26141,-2.95884 14.63044,-9.67011 z M 164.9325,675.8435 h -44.64271 v 79.36487 h 4.96028 v -74.4045 h 34.72214 v 25.0495 c -4.87105,0.99454 -8.67556,4.79909 -9.67011,9.67007 -1.36906,6.71135 2.9588,13.26138 9.67011,14.63048 6.71123,1.36902 13.26138,-2.95884 14.63037,-9.67015 1.36906,-6.71131 -2.95877,-13.26138 -9.67008,-14.6304 z M 556.79627,437.74907 v 243.0548 h 119.04721 v 74.4045 h 4.96033 V 675.8435 H 561.75659 V 442.70939 h 25.0495 c 0.99459,4.87102 4.7991,8.67557 9.67011,9.67011 6.71131,1.36902 13.26142,-2.95884 14.63044,-9.67011 1.36906,-6.7113 -2.95884,-13.26138 -9.67011,-14.63043 -6.71134,-1.36899 -13.26138,2.95884 -14.63044,9.67011 z m 119.04721,-74.4045 v 104.41432 c -4.87097,0.99459 -8.67552,4.7991 -9.67007,9.67008 -1.36902,6.71134 2.95881,13.26145 9.67007,14.63047 6.71135,1.36902 13.26138,-2.95884 14.63048,-9.67011 1.36902,-6.71131 -2.95888,-13.26142 -9.67015,-14.63044 V 358.38424 h -30.00982 c -0.99455,-4.87102 -4.79906,-8.67553 -9.67008,-9.67011 -6.71127,-1.36902 -13.26138,2.95884 -14.6304,9.67011 -1.36906,6.71131 2.95881,13.26138 9.67011,14.63044 6.71123,1.36902 13.26135,-2.95884 14.63037,-9.67011 z M 522.07416,601.43904 V 403.027 h 39.68243 V 358.38424 H 452.38194 c -0.99454,-4.87102 -4.79905,-8.67553 -9.67007,-9.67011 -6.71131,-1.36902 -13.26142,2.95884 -14.6304,9.67011 -1.36906,6.71131 2.9588,13.26138 9.67003,14.63044 6.71131,1.36902 13.26142,-2.95884 14.63044,-9.67011 h 104.41433 v 34.72206 h -39.68244 v 198.41209 h -25.04946 c -0.99454,-4.87102 -4.79909,-8.67553 -9.67011,-9.67008 -6.7113,-1.36905 -13.26138,2.95881 -14.6304,9.67008 -1.36902,6.71127 2.95881,13.26138 9.67008,14.6304 6.7113,1.36905 13.26137,-2.95881 14.63043,-9.67008 z M 705.85335,80.607375 H 680.80381 V 1.2425537 h -4.96033 V 85.567672 h 30.00987 c 0.99454,4.871018 4.79905,8.675573 9.67011,9.670114 6.71131,1.36904 13.26138,-2.958825 14.6304,-9.670114 1.36906,-6.711288 -2.9588,-13.261364 -9.67007,-14.630403 -6.71135,-1.369047 -13.26142,2.958818 -14.63044,9.670106 z M 253.9674,244.2998 c 1.36906,-6.71127 -2.9588,-13.26136 -9.67003,-14.6304 -6.71131,-1.36904 -13.26142,2.95882 -14.63048,9.6701 -1.36906,6.71129 2.95888,13.26137 9.67011,14.63042 V 358.38424 H 134.92267 c -0.99454,-4.87102 -4.79909,-8.67553 -9.67011,-9.67011 -6.71128,-1.36902 -13.26136,2.95884 -14.6304,9.67011 -1.36905,6.71131 2.95882,13.26138 9.6701,14.63044 6.71128,1.36902 13.26136,-2.95884 14.63041,-9.67011 h 109.3747 V 253.96992 c 4.87098,-0.99459 8.67549,-4.79912 9.67003,-9.67012 z M 204.61494,85.567672 V 1.2425537 h -4.96033 V 80.607375 h -64.73194 c -0.99454,-4.871017 -4.79909,-8.675565 -9.67011,-9.670106 -6.71128,-1.369047 -13.26136,2.958818 -14.6304,9.670106 -1.36905,6.711285 2.95882,13.261361 9.6701,14.630411 6.71128,1.36904 13.26136,-2.958825 14.63041,-9.670114 z m 89.03489,0.0025 c 1.36902,-6.711292 -2.9588,-13.261369 -9.67007,-14.630412 -6.71131,-1.369039 -13.26138,2.958822 -14.63044,9.670111 -1.36905,6.711284 2.95885,13.261364 9.67011,14.630407 V 159.9722 h -79.36482 v 158.72963 h -25.0495 c -0.99458,-4.87102 -4.79913,-8.67553 -9.67011,-9.67011 -6.71131,-1.36902 -13.26142,2.95884 -14.63044,9.67011 -1.36906,6.71134 2.95884,13.26142 9.67011,14.63047 6.71127,1.36903 13.26142,-2.95884 14.63044,-9.67014 h 30.00983 V 164.93249 h 79.36482 V 95.240262 c 4.87098,-0.994541 8.67553,-4.799093 9.67007,-9.670106 z M 323.66216,204.6149 V 95.240262 c 4.87101,-0.994541 8.67552,-4.799093 9.67011,-9.670106 1.36902,-6.711292 -2.95885,-13.261369 -9.67011,-14.630412 -6.71131,-1.369039 -13.26138,2.958822 -14.6304,9.670111 -1.3691,6.711284 2.9588,13.261364 9.67007,14.630407 V 199.65459 h -64.73189 c -0.99459,-4.87102 -4.7991,-8.67555 -9.67015,-9.67009 -6.71131,-1.36904 -13.26138,2.95881 -14.6304,9.67009 -1.36906,6.71132 2.9588,13.26136 9.67011,14.63044 6.7113,1.36904 13.26141,-2.95885 14.63044,-9.67013 z M 358.38422,45.885267 V 150.29959 c -4.87098,0.99455 -8.67553,4.79912 -9.67011,9.67013 -1.36906,6.71128 2.95884,13.26137 9.67011,14.6304 6.71135,1.36904 13.26142,-2.95881 14.63048,-9.67009 1.36898,-6.71132 -2.95884,-13.26136 -9.67015,-14.63044 V 40.924966 h -69.69218 c -0.99459,-4.871017 -4.79913,-8.675569 -9.67015,-9.67011 -6.71131,-1.369039 -13.26138,2.958822 -14.63044,9.67011 -1.36898,6.711285 2.95884,13.261365 9.67015,14.630404 6.71131,1.369047 13.26138,-2.958818 14.63044,-9.670103 z M 239.337,715.52594 v 39.68243 h 4.96037 v -34.72211 h 302.82629 c 0.99458,4.87102 4.79913,8.67557 9.67015,9.67011 6.71131,1.36902 13.26138,-2.95884 14.63044,-9.67011 1.36898,-6.7113 -2.95884,-13.26134 -9.67011,-14.6304 -6.71135,-1.36902 -13.26138,2.95881 -14.63048,9.67008 z M 611.10914,363.34706 c 1.36905,-6.7113 -2.95885,-13.26138 -9.67015,-14.63044 -6.71131,-1.36902 -13.26138,2.95885 -14.63037,9.67012 -1.36905,6.7113 2.95877,13.26137 9.67004,14.63043 V 403.027 h 39.68243 v 74.40446 h -39.68243 v 163.68998 h 119.04722 v 114.08693 h 4.96036 V 636.16111 H 601.43899 V 482.39179 h 39.68243 v -84.32516 h -39.68243 v -25.04946 c 4.87105,-0.99454 8.67556,-4.79909 9.67015,-9.67011 z M 164.9325,45.885267 V 1.2425537 h -44.64271 v 4.9603011 h 39.68242 V 40.924966 h -25.04954 c -0.99454,-4.871017 -4.79909,-8.675569 -9.67011,-9.67011 -6.71128,-1.369039 -13.26136,2.958822 -14.6304,9.67011 -1.36905,6.711285 2.95882,13.261365 9.6701,14.630404 6.71128,1.369047 13.26136,-2.958818 14.63041,-9.670103 z M 482.39177,125.25009 V 6.2028548 H 601.43899 V 1.2425537 H 477.43144 V 120.28978 h -64.73189 c -0.99455,-4.87101 -4.7991,-8.67556 -9.67011,-9.6701 -6.71131,-1.36904 -13.26138,2.95882 -14.63044,9.6701 -1.36898,6.71129 2.95884,13.26137 9.67011,14.63042 6.71131,1.36905 13.26138,-2.95883 14.63044,-9.67011 z M 437.74901,6.2028548 V 80.607375 H 403.02694 V 55.557849 c 4.87102,-0.994537 8.67557,-4.799089 9.67015,-9.670102 1.36898,-6.711288 -2.95884,-13.261365 -9.67015,-14.630412 -6.7113,-1.369039 -13.26138,2.958823 -14.63043,9.670111 -1.36899,6.711284 2.95884,13.261364 9.67011,14.630403 v 30.009823 h 44.64275 V 1.2425537 h -154.191 c 0.56304,1.5972208 0.56304,3.340766 0,4.937983 -1.36403,3.8764723 -5.61252,5.9126783 -9.489,4.5485933 -3.87651,-1.3640805 -5.91265,-5.6125794 -4.54862,-9.4890556 h -5.13392 c -1.36902,6.7112881 2.96134,13.2638476 9.6726,14.6328866 6.71131,1.369043 13.26388,-2.961297 14.63294,-9.6725855 0,0.00248 144.09664,0.00248 144.09664,0.00248 z m -94.6673,238.0944552 79.36482,-79.36482 h 99.62763 V 55.557849 c 4.87106,-0.994537 8.67557,-4.799089 9.67015,-9.670102 1.36906,-6.711288 -2.95884,-13.261365 -9.67015,-14.630412 -6.71127,-1.369039 -13.26138,2.958823 -14.6304,9.670111 -1.36902,6.711284 2.95884,13.261364 9.67007,14.630403 V 159.97218 H 420.38798 L 341.02315,239.337 h -47.37078 c -0.99459,-4.87101 -4.79913,-8.67555 -9.67015,-9.67009 -6.71131,-1.36905 -13.26138,2.95881 -14.63044,9.67009 -1.36898,6.7113 2.95884,13.26138 9.67015,14.63043 6.71131,1.36903 13.26138,-2.95884 14.63044,-9.67012 0,0 49.42934,0 49.42934,0 z m 20.26284,35.73897 75.42134,-75.42138 h 122.9907 V 55.557849 c 4.87102,-0.994537 8.67557,-4.799089 9.67015,-9.670102 1.36902,-6.711288 -2.95884,-13.261365 -9.67015,-14.630412 -6.7113,-1.369039 -13.26138,2.958823 -14.6304,9.670111 -1.36902,6.711284 2.95881,13.261364 9.67008,14.630403 V 199.65459 H 436.7322 l -78.34798,78.34798 v 189.75632 c -4.87098,0.99459 -8.67553,4.7991 -9.67011,9.67008 -1.36906,6.71134 2.95884,13.26145 9.67011,14.63047 6.71135,1.36902 13.26142,-2.95884 14.63048,-9.67011 1.36898,-6.71131 -2.95884,-13.26142 -9.67015,-14.63044 z m 39.68239,22.32138 58.06035,-58.06035 h 284.44845 c 0.99455,4.871 4.80159,8.67802 9.67261,9.67261 v -5.13393 c -2.12795,-0.749 -3.80209,-2.42312 -4.54863,-4.54858 -1.36407,-3.87648 0.67465,-8.12498 4.54863,-9.48907 v -5.13393 c -4.87102,0.99455 -8.67806,4.80158 -9.67261,9.67259 H 459.05356 l -60.98694,60.98689 v 246.79983 c -4.87098,0.99458 -8.67553,4.79909 -9.67011,9.67007 -1.36899,6.71135 2.95884,13.26142 9.67011,14.63048 6.71134,1.36902 13.26137,-2.95885 14.63047,-9.67015 1.36898,-6.71131 -2.95884,-13.26138 -9.67015,-14.6304 z M 45.885267,381.72248 164.9325,262.6752 V 125.25009 h 79.36487 V 1.2425537 H 239.337 V 120.28978 H 159.97221 V 260.64149 L 40.924963,379.68872 v 8.70535 c -4.871014,0.99458 -8.675566,4.79909 -9.670107,9.67015 -1.369039,6.7113 2.958822,13.26137 9.670107,14.63036 6.711292,1.36906 13.261372,-2.95877 14.630411,-9.67007 1.369043,-6.71131 -2.958822,-13.26142 -9.670107,-14.63044 z M 134.92018,125.25256 c 1.36902,-6.71128 -2.9588,-13.26136 -9.67011,-14.6304 -6.71127,-1.36905 -13.26135,2.95882 -14.63039,9.6701 -1.36905,6.7113 2.95882,13.26137 9.67011,14.63041 V 240.80031 L 1.2425575,359.84756 V 522.07422 H 70.934786 c 0.994541,4.87102 4.799096,8.67556 9.67011,9.67011 6.711284,1.36902 13.261364,-2.95884 14.630407,-9.67011 1.369043,-6.71131 -2.958818,-13.26138 -9.67011,-14.63044 -6.711284,-1.36898 -13.261361,2.95884 -14.630407,9.67011 H 6.2028548 V 361.88129 L 125.25007,242.83403 V 134.92267 c 4.87102,-0.99454 8.67557,-4.79909 9.67011,-9.67011 z m -39.682397,39.68242 c 1.369039,-6.71128 -2.958819,-13.26136 -9.670107,-14.6304 -6.711288,-1.36904 -13.261364,2.95882 -14.630411,9.67009 -1.369039,6.71128 2.958826,13.26137 9.670106,14.63041 v 46.35401 l -79.3648135,79.3648 v 6.99406 L 85.567676,222.99281 v -48.38773 c 4.871018,-0.99455 8.675566,-4.79908 9.670107,-9.6701 z M 22.547048,80.607375 1.2425575,101.93667 v 6.96922 L 24.58077,85.567672 h 6.671607 c 0.994541,4.871018 4.799093,8.675573 9.670106,9.670114 6.711288,1.36904 13.261368,-2.958825 14.630412,-9.670114 C 56.921934,78.856384 52.594072,72.306308 45.882788,70.937269 39.1715,69.568222 32.62142,73.896087 31.252377,80.607375 Z m 716.317112,44.642715 16.34419,-16.3442 v -6.99402 l -18.37792,18.37791 h -46.35401 c -0.99455,-4.87101 -4.7991,-8.67556 -9.67011,-9.6701 -6.71127,-1.36904 -13.26134,2.95882 -14.6304,9.6701 -1.36902,6.71129 2.9588,13.26137 9.67011,14.63042 6.71127,1.36905 13.26134,-2.95883 14.6304,-9.67011 z M 720.48624,522.07422 V 342.04009 l 34.72211,-34.72214 v -6.99406 l -39.68247,39.68244 v 177.10756 h -64.73189 c -0.99455,-4.87098 -4.79906,-8.67553 -9.67008,-9.67011 -6.71127,-1.36898 -13.26138,2.95884 -14.6304,9.67011 -1.36906,6.71131 2.95881,13.26138 9.67011,14.63044 6.71123,1.36902 13.26135,-2.95884 14.63037,-9.67011 z M 164.9325,601.43904 V 538.41841 L 103.94559,477.43146 H 55.557857 c -0.994545,-4.87098 -4.799097,-8.67549 -9.670114,-9.67007 -6.711284,-1.36902 -13.261364,2.9588 -14.630408,9.67007 -1.369043,6.71131 2.958823,13.26142 9.670111,14.63044 6.711288,1.36906 13.261364,-2.95884 14.630411,-9.67011 h 46.354013 l 58.06034,58.06034 v 56.02659 h -25.04954 c -0.99454,-4.87102 -4.79909,-8.67553 -9.67011,-9.67008 -6.71128,-1.36905 -13.26136,2.95881 -14.6304,9.67008 -1.36905,6.71127 2.95882,13.26138 9.6701,14.6304 6.71128,1.36905 13.26136,-2.95881 14.63041,-9.67008 0,0 30.00983,0 30.00983,0 z m 342.50877,34.72207 H 244.29737 V 498.76081 L 143.60319,398.06663 H 95.240262 c -0.994541,-4.87098 -4.799089,-8.67549 -9.670106,-9.67007 -6.711285,-1.36902 -13.261365,2.95884 -14.630412,9.67007 -1.369039,6.71131 2.958822,13.26142 9.670107,14.63044 6.711292,1.36906 13.261372,-2.95884 14.630411,-9.67007 h 46.378788 l 97.71795,97.71795 v 140.37649 h 268.10427 c 0.99458,4.87101 4.79909,8.67556 9.67015,9.67011 6.71126,1.36902 13.26137,-2.95884 14.6304,-9.67011 1.36902,-6.71131 -2.95885,-13.26138 -9.67008,-14.6304 -6.71134,-1.36902 -13.26141,2.9588 -14.63047,9.67007 z m -302.82633,4.96033 V 518.57717 L 123.7868,437.74907 H 55.557857 c -0.994545,-4.87098 -4.799097,-8.67553 -9.670114,-9.67011 -6.711284,-1.36899 -13.261364,2.95884 -14.630408,9.67011 -1.369043,6.7113 2.958823,13.26138 9.670111,14.63043 6.711288,1.36902 13.261364,-2.95884 14.630411,-9.67011 h 66.195213 l 77.90154,77.90155 v 115.55017 h -64.73194 c -0.99454,-4.87098 -4.79909,-8.67553 -9.67011,-9.67007 -6.71128,-1.36902 -13.26136,2.9588 -14.6304,9.67007 -1.36905,6.71131 2.95882,13.26138 9.6701,14.63044 6.71128,1.36902 13.26136,-2.95884 14.63041,-9.67011 0,0 69.69227,0 69.69227,0 z M 85.567676,1.2425537 H 80.607371 V 101.91187 L 22.547048,159.97218 H 1.2425575 v 4.96031 H 24.58077 l 60.986906,-60.9869 V 99.952551 Z M 6.2028548,641.12144 H 40.924963 v 114.08693 h 4.960304 V 636.16111 H 1.2425575 v 114.50861 c 0.00248,0 0.00491,-0.002 0.00718,-0.002 3.8739931,-1.36661 8.1249676,0.66716 9.4915315,4.54114 h 5.133917 c -0.994541,-4.87102 -4.801579,-8.67803 -9.6725893,-9.67257 z M 85.567676,596.47872 H 1.2425575 v 4.96032 H 80.607371 v 153.76933 h 4.960305 V 598.95888 Z M 45.885267,45.885267 V 1.2425537 H 40.924963 V 40.924966 H 1.2425575 v 4.960301 H 43.405115 Z M 720.48624,1.2425537 h -4.96036 V 45.885267 h 39.68247 V 40.924966 H 720.48624 Z M 641.12142,715.52594 h -44.64276 v 39.68243 h 4.96033 v -34.72211 h 34.7221 v 34.72211 h 4.96033 V 718.0061 Z M 1.2425575,234.79834 c 1.5972132,-0.563 3.3407622,-0.563 4.9379792,0 3.8764763,1.36409 5.9126783,5.61259 4.5485973,9.48907 -1.3640883,3.87648 -5.6125834,5.91268 -9.4890596,4.54858 v 5.13393 c 0.8159697,0.16618 1.6492989,0.25031 2.4826318,0.25031 6.8501778,-0.002 12.4032298,-5.55554 12.4007508,-12.40327 -0.0025,-0.79614 -0.08432,-1.59224 -0.240567,-2.37348 -1.341762,-6.74355 -7.8968012,-11.12102 -14.6403287,-9.77926 z M 199.65461,755.20837 h 4.96033 V 675.8435 h -4.96033 z m 84.31276,-9.685 c -6.71131,-1.36411 -13.25643,2.97369 -14.62054,9.685 h 5.13392 c 0.74903,-2.12795 2.42313,-3.80206 4.54862,-4.54863 3.87648,-1.36407 8.12497,0.67465 9.489,4.54863 h 5.134 c -0.99209,-4.88092 -4.80412,-8.69295 -9.685,-9.685 z M 10.741527,1.2425537 c 0.57044,1.6096214 0.57044,3.3630841 0,4.9727018 C 9.3675251,10.089252 5.1165506,12.115533 1.2425575,10.741531 v 5.133913 c 1.5972132,0.317481 3.2415534,0.317481 4.8387742,0 6.7460033,-1.3368 11.1284333,-7.8868796 9.7941123,-14.6328903 z m 734.794213,0.00529 c -1.36902,6.7112882 2.9638,13.2588813 9.67261,14.6279283 v -5.133895 c -0.002,0 -0.004,-0.0025 -0.008,-0.0025 -3.87402,-1.3715228 -5.90275,-5.6225011 -4.53124,-9.496498 h -5.13392 c 0,0.00248 0,0.00248 0,0.00529 z m 0,753.9608263 h 5.13392 c 0.74903,-2.12054 2.41815,-3.78966 4.53869,-4.53868 v -5.13393 c -4.87102,0.99455 -8.67806,4.80159 -9.67261,9.67261 z M 234.37671,241.81716 c 0,-4.10961 3.33086,-7.44047 7.44049,-7.44047 4.1096,0 7.44046,3.33086 7.44046,7.44047 0,4.10961 -3.33086,7.44046 -7.44046,7.44046 -4.10963,0 -7.44049,-3.33085 -7.44049,-7.44046 z m 0,-39.68241 c 0,-4.10961 3.33086,-7.44046 7.44049,-7.44046 4.1096,0 7.44046,3.33085 7.44046,7.44046 0,4.1096 -3.33086,7.44045 -7.44046,7.44045 -4.10963,0 -7.44049,-3.33085 -7.44049,-7.44045 z m 39.68243,39.68241 c 0,-4.10961 3.33083,-7.44047 7.44046,-7.44047 4.10959,0 7.44045,3.33086 7.44045,7.44047 0,4.10961 -3.33086,7.44046 -7.44045,7.44046 -4.10963,0 -7.44046,-3.33085 -7.44046,-7.44046 z m 39.6824,39.68241 c 0,-4.10961 3.33086,-7.44046 7.44045,-7.44046 4.10963,0 7.44046,3.33085 7.44046,7.44046 0,4.10961 -3.33083,7.44046 -7.44046,7.44046 -4.10959,0 -7.44045,-3.33085 -7.44045,-7.44046 z m 0,39.6824 c 0,-4.10959 3.33086,-7.44045 7.44045,-7.44045 4.10963,0 7.44046,3.33086 7.44046,7.44045 0,4.10963 -3.33083,7.44046 -7.44046,7.44046 -4.10959,0 -7.44045,-3.33083 -7.44045,-7.44046 z m -119.04722,79.36487 c 0,-4.10964 3.33086,-7.4405 7.44045,-7.4405 4.10963,0 7.44046,3.33086 7.44046,7.4405 0,4.10959 -3.33083,7.44045 -7.44046,7.44045 -4.10959,0 -7.44045,-3.33086 -7.44045,-7.44045 z m 39.68239,39.68239 c 0,-4.10963 3.33086,-7.44045 7.44049,-7.44045 4.1096,0 7.44046,3.33082 7.44046,7.44045 0,4.10959 -3.33086,7.44045 -7.44046,7.44045 -4.10963,0 -7.44049,-3.33086 -7.44049,-7.44045 z m 79.36483,119.04722 c 0,-4.1096 3.33086,-7.44046 7.44045,-7.44046 4.10963,0 7.44046,3.33086 7.44046,7.44046 0,4.10963 -3.33083,7.44045 -7.44046,7.44045 -4.10959,0 -7.44045,-3.33082 -7.44045,-7.44045 z m -39.6824,39.68243 c 0,-4.10963 3.33083,-7.44045 7.44046,-7.44045 4.10959,0 7.44045,3.33082 7.44045,7.44045 0,4.10959 -3.33086,7.44045 -7.44045,7.44045 -4.10963,0 -7.44046,-3.33086 -7.44046,-7.44045 z m 79.36483,-39.68243 c 0,-4.1096 3.33078,-7.44046 7.44042,-7.44046 4.10959,0 7.44045,3.33086 7.44045,7.44046 0,4.10963 -3.33086,7.44045 -7.44045,7.44045 -4.10964,0 -7.44042,-3.33082 -7.44042,-7.44045 z m 0,-79.36483 c 0,-4.10959 3.33078,-7.44045 7.44042,-7.44045 4.10959,0 7.44045,3.33086 7.44045,7.44045 0,4.10963 -3.33086,7.44046 -7.44045,7.44046 -4.10964,0 -7.44042,-3.33083 -7.44042,-7.44046 z m 39.68239,79.36483 c 0,-4.1096 3.33083,-7.44046 7.44042,-7.44046 4.10963,0 7.44045,3.33086 7.44045,7.44046 0,4.10963 -3.33082,7.44045 -7.44045,7.44045 -4.10959,0 -7.44042,-3.33082 -7.44042,-7.44045 z m 79.36483,39.68243 c 0,-4.10963 3.33078,-7.44045 7.44041,-7.44045 4.1096,0 7.44046,3.33082 7.44046,7.44045 0,4.10959 -3.33086,7.44045 -7.44046,7.44045 -4.10963,0 -7.44041,-3.33086 -7.44041,-7.44045 z m 0,-39.68243 c 0,-4.1096 3.33078,-7.44046 7.44041,-7.44046 4.1096,0 7.44046,3.33086 7.44046,7.44046 0,4.10963 -3.33086,7.44045 -7.44046,7.44045 -4.10963,0 -7.44041,-3.33082 -7.44041,-7.44045 z m -39.6824,-158.72961 c 0,-4.10964 3.33079,-7.4405 7.44042,-7.4405 4.10959,0 7.44045,3.33086 7.44045,7.4405 0,4.10959 -3.33086,7.44045 -7.44045,7.44045 -4.10963,0 -7.44042,-3.33086 -7.44042,-7.44045 z m 39.6824,0 c 0,-4.10964 3.33078,-7.4405 7.44041,-7.4405 4.1096,0 7.44046,3.33086 7.44046,7.4405 0,4.10959 -3.33086,7.44045 -7.44046,7.44045 -4.10963,0 -7.44041,-3.33086 -7.44041,-7.44045 z m 39.68239,238.09443 c 0,-4.10959 3.33082,-7.44045 7.44042,-7.44045 4.10963,0 7.44045,3.33086 7.44045,7.44045 0,4.10964 -3.33082,7.44046 -7.44045,7.44046 -4.1096,0 -7.44042,-3.33082 -7.44042,-7.44046 z m 0,39.6824 c 0,-4.1096 3.33082,-7.44046 7.44042,-7.44046 4.10963,0 7.44045,3.33086 7.44045,7.44046 0,4.10963 -3.33082,7.44049 -7.44045,7.44049 -4.1096,0 -7.44042,-3.33086 -7.44042,-7.44049 z m 39.68243,39.68243 c 0,-4.10963 3.33079,-7.44045 7.44042,-7.44045 v 0 c 4.10959,0 7.44045,3.33082 7.44045,7.44045 0,4.10959 -3.33086,7.44045 -7.44045,7.44045 -4.10963,0 -7.44042,-3.33086 -7.44042,-7.44045 z m 39.68236,-357.1417 c 0,-4.10959 3.33086,-7.44045 7.44045,-7.44045 4.10963,0 7.44046,3.33086 7.44046,7.44045 0,4.10964 -3.33083,7.44046 -7.44046,7.44046 -4.10959,0 -7.44045,-3.33082 -7.44045,-7.44046 z m 0,79.36483 c 0,-4.10963 3.33086,-7.44045 7.44045,-7.44045 4.10963,0 7.44046,3.33082 7.44046,7.44045 0,4.10959 -3.33083,7.44045 -7.44046,7.44045 -4.10959,0 -7.44045,-3.33086 -7.44045,-7.44045 z M 631.2008,360.8644 c 0,-4.10959 3.33082,-7.44045 7.44045,-7.44045 4.1096,0 7.44046,3.33086 7.44046,7.44045 0,4.10964 -3.33086,7.44046 -7.44046,7.44046 -4.10963,0 -7.44045,-3.33082 -7.44045,-7.44046 z m 39.68239,-39.68243 c 0,-4.10959 3.33086,-7.44045 7.44046,-7.44045 4.10963,0 7.44045,3.33086 7.44045,7.44045 0,4.10963 -3.33082,7.44046 -7.44045,7.44046 -4.1096,0 -7.44046,-3.33083 -7.44046,-7.44046 z m -238.0944,0 c 0,-4.10959 3.33079,-7.44045 7.44042,-7.44045 4.10959,0 7.44045,3.33086 7.44045,7.44045 0,4.10963 -3.33086,7.44046 -7.44045,7.44046 -4.10963,0 -7.44042,-3.33083 -7.44042,-7.44046 z m 0,39.68243 c 0,-4.10959 3.33079,-7.44045 7.44042,-7.44045 4.10959,0 7.44045,3.33086 7.44045,7.44045 0,4.10964 -3.33086,7.44046 -7.44045,7.44046 -4.10963,0 -7.44042,-3.33082 -7.44042,-7.44046 z m 39.6824,-79.36483 c 0,-4.10961 3.33078,-7.44046 7.44041,-7.44046 4.1096,0 7.44046,3.33085 7.44046,7.44046 0,4.10961 -3.33086,7.44046 -7.44046,7.44046 -4.10963,0 -7.44041,-3.33085 -7.44041,-7.44046 z m 238.0944,0 c 0,-4.10961 3.33086,-7.44046 7.44049,-7.44046 4.10959,0 7.44045,3.33085 7.44045,7.44046 0,4.10961 -3.33086,7.44046 -7.44045,7.44046 -4.10963,0 -7.44049,-3.33085 -7.44049,-7.44046 z m -39.6824,-158.72964 c 0,-4.10961 3.33086,-7.44045 7.44046,-7.44045 4.10963,0 7.44045,3.33084 7.44045,7.44045 0,4.10962 -3.33082,7.44046 -7.44045,7.44046 -4.1096,0 -7.44046,-3.33084 -7.44046,-7.44046 z m 39.6824,-39.682406 c 0,-4.109609 3.33086,-7.440454 7.44049,-7.440454 4.10959,0 7.44045,3.330845 7.44045,7.440454 0,4.109612 -3.33086,7.440453 -7.44045,7.440453 -4.10963,0 -7.44049,-3.330841 -7.44049,-7.440453 z m -79.36479,0 c 0,-4.109609 3.33082,-7.440454 7.44045,-7.440454 4.1096,0 7.44046,3.330845 7.44046,7.440454 0,4.109612 -3.33086,7.440453 -7.44046,7.440453 -4.10963,0 -7.44045,-3.330841 -7.44045,-7.440453 z m 0,-39.682405 c 0,-4.109613 3.33082,-7.440458 7.44045,-7.440458 4.1096,0 7.44046,3.330845 7.44046,7.440458 0,4.109605 -3.33086,7.44045 -7.44046,7.44045 -4.10963,0 -7.44045,-3.330845 -7.44045,-7.44045 z m -39.68243,0 c 0,-4.109613 3.33086,-7.440458 7.44045,-7.440458 4.10963,0 7.44046,3.330845 7.44046,7.440458 0,4.109605 -3.33083,7.44045 -7.44046,7.44045 -4.10959,0 -7.44045,-3.330845 -7.44045,-7.44045 z m -39.68236,0 c 0,-4.109613 3.33079,-7.440458 7.44042,-7.440458 v 0 c 4.10959,0 7.44045,3.330845 7.44045,7.440458 0,4.109605 -3.33086,7.44045 -7.44045,7.44045 -4.10963,0 -7.44042,-3.330845 -7.44042,-7.44045 z m -39.68243,0 c 0,-4.109613 3.33082,-7.440458 7.44042,-7.440458 4.10963,0 7.44045,3.330845 7.44045,7.440458 0,4.109605 -3.33082,7.44045 -7.44045,7.44045 -4.1096,0 -7.44042,-3.330845 -7.44042,-7.44045 z m -396.8241,39.682405 c 0,-4.109609 3.33085,-7.440454 7.44045,-7.440454 4.10961,0 7.44047,3.330845 7.44047,7.440454 0,4.109612 -3.33086,7.440453 -7.44047,7.440453 -4.1096,0 -7.44045,-3.330841 -7.44045,-7.440453 z m -79.364815,0 c 0,-4.109609 3.330837,-7.440454 7.44045,-7.440454 4.109609,0 7.440454,3.330845 7.440454,7.440454 0,4.109612 -3.330845,7.440453 -7.440454,7.440453 -4.109613,0 -7.44045,-3.330841 -7.44045,-7.440453 z m 79.364815,39.682406 c 0,-4.10961 3.33085,-7.44045 7.44045,-7.44045 4.10961,0 7.44047,3.33084 7.44047,7.44045 0,4.10962 -3.33086,7.44046 -7.44047,7.44046 -4.1096,0 -7.44045,-3.33084 -7.44045,-7.44046 z m -39.682406,39.6824 c 0,-4.1096 3.330845,-7.44046 7.44045,-7.44046 4.109612,0 7.440453,3.33086 7.440453,7.44046 0,4.10961 -3.330841,7.44046 -7.440453,7.44046 -4.109605,0 -7.44045,-3.33085 -7.44045,-7.44046 z M 115.32948,43.405119 c 0,-4.109613 3.33085,-7.440458 7.44045,-7.440458 4.10961,0 7.44047,3.330845 7.44047,7.440458 0,4.109605 -3.33086,7.44045 -7.44047,7.44045 -4.1096,0 -7.44045,-3.330845 -7.44045,-7.44045 z m 0,595.236151 c 0,-4.10959 3.33085,-7.44045 7.44045,-7.44045 4.10961,0 7.44047,3.33086 7.44047,7.44045 0,4.10964 -3.33086,7.44046 -7.44047,7.44046 -4.1096,0 -7.44045,-3.33082 -7.44045,-7.44046 z m 39.68244,79.36483 c 0,-4.10963 3.33082,-7.44045 7.44046,-7.44045 4.10959,0 7.44045,3.33082 7.44045,7.44045 0,4.10959 -3.33086,7.44045 -7.44045,7.44045 -4.10964,0 -7.44046,-3.33086 -7.44046,-7.44045 z M 115.32948,559.27645 c 0,-4.1096 3.33085,-7.44046 7.44045,-7.44046 4.10961,0 7.44047,3.33086 7.44047,7.44046 0,4.10963 -3.33086,7.44045 -7.44047,7.44045 -4.1096,0 -7.44045,-3.33082 -7.44045,-7.44045 z m 0,39.68243 c 0,-4.10963 3.33085,-7.44045 7.44045,-7.44045 4.10961,0 7.44047,3.33082 7.44047,7.44045 0,4.10959 -3.33086,7.44045 -7.44047,7.44045 -4.1096,0 -7.44045,-3.33086 -7.44045,-7.44045 z M 75.647074,519.59405 c 0,-4.10963 3.330845,-7.44045 7.44045,-7.44045 4.109612,0 7.440453,3.33082 7.440453,7.44045 0,4.1096 -3.330841,7.44046 -7.440453,7.44046 -4.109605,0 -7.44045,-3.33086 -7.44045,-7.44046 z M 274.05914,83.087524 c 0,-4.109609 3.33083,-7.440454 7.44046,-7.440454 4.10959,0 7.44045,3.330845 7.44045,7.440454 0,4.109612 -3.33086,7.440453 -7.44045,7.440453 -4.10963,0 -7.44046,-3.330841 -7.44046,-7.440453 z m 39.6824,0 c 0,-4.109609 3.33086,-7.440454 7.44045,-7.440454 4.10963,0 7.44046,3.330845 7.44046,7.440454 0,4.109612 -3.33083,7.440453 -7.44046,7.440453 -4.10959,0 -7.44045,-3.330841 -7.44045,-7.440453 z m -39.6824,-39.682405 c 0,-4.109613 3.33083,-7.440458 7.44046,-7.440458 4.10959,0 7.44045,3.330845 7.44045,7.440458 0,4.109605 -3.33086,7.44045 -7.44045,7.44045 -4.10963,0 -7.44046,-3.330845 -7.44046,-7.44045 z m 79.36483,119.047211 c 0,-4.1096 3.33078,-7.44046 7.44042,-7.44046 4.10959,0 7.44045,3.33086 7.44045,7.44046 0,4.10961 -3.33086,7.44046 -7.44045,7.44046 -4.10964,0 -7.44042,-3.33085 -7.44042,-7.44046 z m 39.68239,-39.6824 c 0,-4.10961 3.33083,-7.44045 7.44042,-7.44045 4.10963,0 7.44045,3.33084 7.44045,7.44045 0,4.10962 -3.33082,7.44046 -7.44045,7.44046 -4.10959,0 -7.44042,-3.33084 -7.44042,-7.44046 z m 0,-79.364811 c 0,-4.109613 3.33083,-7.440458 7.44042,-7.440458 4.10963,0 7.44045,3.330845 7.44045,7.440458 0,4.109605 -3.33082,7.44045 -7.44045,7.44045 -4.10959,0 -7.44042,-3.330845 -7.44042,-7.44045 z M 670.88319,479.91162 c 0,-4.10959 3.33086,-7.44045 7.44046,-7.44045 4.10963,0 7.44045,3.33086 7.44045,7.44045 0,4.10963 -3.33082,7.44046 -7.44045,7.44046 -4.1096,0 -7.44046,-3.33083 -7.44046,-7.44046 z m -39.68239,39.68243 c 0,-4.10963 3.33082,-7.44045 7.44045,-7.44045 4.1096,0 7.44046,3.33082 7.44046,7.44045 0,4.1096 -3.33086,7.44046 -7.44046,7.44046 -4.10963,0 -7.44045,-3.33086 -7.44045,-7.44046 z m 0,39.6824 c 0,-4.1096 3.33082,-7.44046 7.44045,-7.44046 4.1096,0 7.44046,3.33086 7.44046,7.44046 0,4.10963 -3.33086,7.44045 -7.44046,7.44045 -4.10963,0 -7.44045,-3.33082 -7.44045,-7.44045 z m 0,39.68243 c 0,-4.10963 3.33082,-7.44045 7.44045,-7.44045 4.1096,0 7.44046,3.33082 7.44046,7.44045 0,4.10959 -3.33086,7.44045 -7.44046,7.44045 -4.10963,0 -7.44045,-3.33086 -7.44045,-7.44045 z M 35.964665,440.22923 c 0,-4.10963 3.330837,-7.44045 7.44045,-7.44045 4.109609,0 7.440454,3.33082 7.440454,7.44045 0,4.10959 -3.330845,7.44045 -7.440454,7.44045 -4.109613,0 -7.44045,-3.33086 -7.44045,-7.44045 z m 0,39.68239 c 0,-4.10959 3.330837,-7.44045 7.44045,-7.44045 4.109609,0 7.440454,3.33086 7.440454,7.44045 0,4.10963 -3.330845,7.44046 -7.440454,7.44046 -4.109613,0 -7.44045,-3.33083 -7.44045,-7.44046 z m 0,-79.36478 c 0,-4.10964 3.330837,-7.4405 7.44045,-7.4405 4.109609,0 7.440454,3.33086 7.440454,7.4405 0,4.10959 -3.330845,7.44045 -7.440454,7.44045 -4.109613,0 -7.44045,-3.33086 -7.44045,-7.44045 z m 39.682409,0 c 0,-4.10964 3.330845,-7.4405 7.44045,-7.4405 4.109612,0 7.440453,3.33086 7.440453,7.4405 0,4.10959 -3.330841,7.44045 -7.440453,7.44045 -4.109605,0 -7.44045,-3.33086 -7.44045,-7.44045 z M 35.964665,202.13475 c 0,-4.10961 3.330837,-7.44046 7.44045,-7.44046 4.109609,0 7.440454,3.33085 7.440454,7.44046 0,4.1096 -3.330845,7.44045 -7.440454,7.44045 -4.109613,0 -7.44045,-3.33085 -7.44045,-7.44045 z M 115.32948,360.8644 c 0,-4.10959 3.33085,-7.44045 7.44045,-7.44045 4.10961,0 7.44047,3.33086 7.44047,7.44045 0,4.10964 -3.33086,7.44046 -7.44047,7.44046 -4.1096,0 -7.44045,-3.33082 -7.44045,-7.44046 z m 39.68244,-39.68243 c 0,-4.10959 3.33082,-7.44045 7.44046,-7.44045 4.10959,0 7.44045,3.33086 7.44045,7.44045 0,4.10963 -3.33086,7.44046 -7.44045,7.44046 -4.10964,0 -7.44046,-3.33083 -7.44046,-7.44046 z"
         style="stroke:#000000;stroke-width:2.48015;stroke-opacity:1" /></pattern></defs><path
     id="headset"
     d="m 182.2754,2.6865043 c 35.82296,8.0320447 66.65217,32.4242567 82.2708,65.0460847 5.50177,11.569576 5.73926,11.808546 10.38175,12.53767 44.45975,7.284944 43.71746,73.202621 -0.90894,81.101921 -3.87283,0.70249 -4.47075,1.47473 -8.24817,9.74014 -16.60916,36.51069 -61.37249,69.12215 -94.83871,69.13646 -2.26277,-0.007 -4.58906,1.23611 -6.85916,3.55146 -11.17198,11.63646 -29.04347,-5.15257 -18.46511,-17.38644 5.73749,-6.65141 17.99741,-4.40976 21.12755,3.87723 1.29937,3.39838 4.81365,3.11158 21.14427,-1.48205 64.96499,-18.31617 98.47497,-89.37147 72.17509,-152.991893 C 230.91883,5.1016103 136.18016,-14.78641 79.444275,37.914932 41.222115,73.464691 32.458029,133.87881 59.116336,178.08757 c 4.798601,7.93498 4.856841,8.352 1.515619,10.42573 -3.400894,2.13307 -5.121069,-0.0161 -12.635025,-15.58167 l -5.561334,-11.56982 -5.954528,-0.0782 c -4.049095,-0.0722 -8.273425,-1.21687 -13.08955,-3.55431 C -13.888778,139.68857 -4.4829033,83.504391 36.558721,79.404954 l 6.314105,-0.635253 3.298445,-7.433214 C 68.422451,20.611421 128.12446,-9.4522526 182.2754,2.6865043 Z"
     fill="white" /><path
     id="head"
     d="m 133.64264,33.761755 c -31.9632,11.365986 -50.425735,36.86736 -48.810263,67.388195 0.576948,11.3083 3.230916,18.00096 13.269933,33.17484 9.46204,14.36615 11.88525,20.53954 11.88525,29.94388 v 7.90429 l 21.52038,20.65491 c 11.82752,11.36599 22.44349,21.63579 23.59739,22.84736 3.17323,3.28865 5.01948,1.67317 7.90427,-6.98112 2.88475,-8.48123 8.36583,-17.82787 12.98143,-22.09732 2.76938,-2.48091 3.63481,-2.59628 18.00095,-2.30781 19.0972,0.40389 19.03947,0.46158 21.52037,-15.80852 2.25012,-15.05851 4.67334,-21.80885 9.46204,-26.59756 5.13489,-5.19258 5.01952,-8.9428 -0.75002,-20.25109 l -4.61564,-9.05815 0.75006,-18.924106 0.75004,-18.92407 -3.46174,-7.442694 C 204.60795,39.415915 163.64424,23.088117 133.64264,33.761755 Z"
     fill="url(#pcb_pattern)" /><g
     aria-label="Expert"
     id="expert"
     style="font-size:123.472px;line-height:0;letter-spacing:-14.5521px;fill:white;fill-opacity:1;stroke-width:0.264583"
     transform="translate(-4.2153802,-6.8080135)"><path
       d="M 319.31011,63.306432 H 397.6 V 84.559947 H 347.42902 V 104.827 H 397.6 v 21.29051 h -50.17094 v 24.97836 h 49.37243 v 21.25351 h -77.49134 z"
       style="font-size:149.578px;line-height:0.2;fill:white;fill-opacity:1"
       id="path876" /><path
       d="m 421.63629,137.80375 -24.35678,-32.97812 h 22.84955 l 13.8062,20.01597 13.98706,-20.01597 h 22.84955 l -24.35678,32.85754 25.56257,34.66621 H 449.1281 l -15.19284,-21.34233 -15.01198,21.34233 h -22.84955 z"
       style="font-weight:bold;line-height:0.2;fill:white;fill-opacity:1"
       id="path878" /><path
       d="m 491.24773,162.58255 v 35.44997 h -21.58349 v -93.20689 h 21.58349 v 9.88741 q 4.46139,-5.90833 9.8874,-8.68163 5.42602,-2.83358 12.47984,-2.83358 12.47984,0 20.49828,9.94769 8.01845,9.88741 8.01845,25.50227 0,15.61487 -8.01845,25.56257 -8.01844,9.8874 -20.49828,9.8874 -7.05382,0 -12.47984,-2.77329 -5.42601,-2.83359 -9.8874,-8.74192 z m 14.3488,-43.70957 q -6.93325,0 -10.67117,5.12457 -3.67763,5.06428 -3.67763,14.65024 0,9.58597 3.67763,14.71054 3.73792,5.06428 10.67117,5.06428 6.93324,0 10.55058,-5.06428 3.67763,-5.06429 3.67763,-14.71054 0,-9.64625 -3.67763,-14.71053 -3.61734,-5.06428 -10.55058,-5.06428 z"
       style="font-weight:bold;line-height:0.2;fill:white;fill-opacity:1"
       id="path880" /><path
       d="m 610.89908,138.40664 v 6.14948 h -50.46194 q 0.78375,7.59642 5.4863,11.39464 4.70255,3.79821 13.14302,3.79821 6.81266,0 13.92677,-1.98954 7.1744,-2.04983 14.71053,-6.14949 v 16.63978 q -7.65671,2.89388 -15.31342,4.34082 -7.65671,1.50722 -15.31342,1.50722 -18.32788,0 -28.51673,-9.28451 -10.12856,-9.34481 -10.12856,-26.16546 0,-16.5192 9.94769,-25.98458 10.00799,-9.46538 27.49182,-9.46538 15.91631,0 25.44198,9.58596 9.58596,9.58596 9.58596,25.62285 z m -22.18637,-7.1744 q 0,-6.14948 -3.61735,-9.88741 -3.55705,-3.79821 -9.3448,-3.79821 -6.27007,0 -10.18885,3.55706 -3.91879,3.49676 -4.88342,10.12856 z"
       id="path882"
       style="fill:white;fill-opacity:1" /><path
       d="m 662.8458,123.21379 q -2.83358,-1.32635 -5.66717,-1.92925 -2.7733,-0.66318 -5.60688,-0.66318 -8.31989,0 -12.84157,5.36573 -4.46139,5.30544 -4.46139,15.25313 v 31.10916 H 612.6853 v -67.52375 h 21.58349 v 11.09319 q 4.15994,-6.6318 9.52567,-9.64625 5.42601,-3.07474 12.96215,-3.07474 1.0852,0 2.35127,0.12057 1.26607,0.0603 3.67763,0.36174 z"
       style="font-weight:bold;line-height:0.2;fill:white;fill-opacity:1"
       id="path884" /><path
       d="m 682.5982,85.653709 v 19.171921 h 22.24666 v 15.434 H 682.5982 v 28.63731 q 0,4.70254 1.86896,6.39064 1.86896,1.6278 7.41555,1.6278 h 11.09319 v 15.434 h -18.50874 q -12.78128,0 -18.14701,-5.30544 -5.30544,-5.36572 -5.30544,-18.147 v -28.63731 h -10.73145 v -15.434 h 10.73145 V 85.653709 Z"
       style="font-weight:bold;line-height:0.2;fill:white;fill-opacity:1"
       id="path886" /></g><g
     aria-label="Callers"
     id="callers"
     style="font-size:123.472px;line-height:0;letter-spacing:-14.5521px;fill:#1c7cac;fill-opacity:1;stroke-width:0.264583"
     transform="translate(-125.60989,35.087629)"><path
       d="m 921.87739,124.5333 q -7.74183,4.01699 -16.14099,6.062 -8.39915,2.04501 -17.52867,2.04501 -27.24248,0 -43.16435,-15.19152 -15.92188,-15.26455 -15.92188,-41.338447 0,-26.146936 15.92188,-41.338452 15.92187,-15.264552 43.16435,-15.264552 9.12952,0 17.52867,2.045011 8.39916,2.045012 16.14099,6.061999 v 22.568166 q -7.81487,-5.331638 -15.41062,-7.814866 -7.59576,-2.483229 -15.99492,-2.483229 -15.04544,0 -23.66371,9.64077 -8.61826,9.640769 -8.61826,26.585153 0,16.871347 8.61826,26.512117 8.61827,9.64077 23.66371,9.64077 8.39916,0 15.99492,-2.48323 7.59575,-2.48323 15.41062,-7.81487 z"
       style="font-size:149.578px;fill:#1c7cac;fill-opacity:1"
       id="path889" /><path
       d="m 957.52786,100.13658 q -6.75237,0 -10.18885,2.29098 -3.37619,2.29098 -3.37619,6.75237 0,4.09966 2.71301,6.45093 2.7733,2.29099 7.65671,2.29099 6.0892,0 10.24914,-4.34081 4.15995,-4.40111 4.15995,-10.97261 v -2.47185 z m 32.97812,-8.139028 v 38.524708 h -21.76435 v -10.00798 q -4.34081,6.14948 -9.76683,8.98307 -5.42601,2.7733 -13.2033,2.7733 -10.4903,0 -17.06181,-6.0892 -6.51122,-6.14948 -6.51122,-15.91631 0,-11.876948 8.13903,-17.423542 8.19931,-5.546593 25.68314,-5.546593 h 12.72099 v -1.688094 q 0,-5.12457 -4.03937,-7.475844 -4.03936,-2.411562 -12.60041,-2.411562 -6.93324,0 -12.90186,1.386648 -5.96862,1.386649 -11.09319,4.159945 V 64.807184 q 6.93324,-1.688093 13.92677,-2.53214 6.99354,-0.904336 13.98707,-0.904336 18.26758,0 26.34632,7.234687 8.13902,7.174399 8.13902,23.392157 z"
       style="font-weight:bold;fill:#1c7cac;fill-opacity:1"
       id="path891" /><path
       d="m 996.03015,36.712481 h 21.58345 v 93.809779 h -21.58345 z"
       id="path893"
       style="fill:#1c7cac;fill-opacity:1" /><path
       d="m 1023.801,36.712481 h 21.5835 v 93.809779 h -21.5835 z"
       id="path895"
       style="fill:#1c7cac;fill-opacity:1" /><path
       d="m 1118.975,96.57952 v 6.14948 h -50.4619 q 0.7837,7.59643 5.4863,11.39464 4.7025,3.79821 13.143,3.79821 6.8126,0 13.9268,-1.98954 7.1744,-2.04983 14.7105,-6.14948 v 16.63978 q -7.6567,2.89387 -15.3134,4.34081 -7.6567,1.50723 -15.3135,1.50723 -18.3278,0 -28.5167,-9.28452 -10.1285,-9.3448 -10.1285,-26.165453 0,-16.519204 9.9477,-25.984586 10.0079,-9.465383 27.4918,-9.465383 15.9163,0 25.4419,9.585961 9.586,9.585961 9.586,25.622851 z m -22.1864,-7.174398 q 0,-6.149484 -3.6173,-9.887406 -3.5571,-3.798211 -9.3448,-3.798211 -6.2701,0 -10.1889,3.557054 -3.9188,3.496766 -4.8834,10.128563 z"
       id="path897"
       style="fill:#1c7cac;fill-opacity:1" /><path
       d="m 1170.9218,81.386677 q -2.8336,-1.32636 -5.6672,-1.92925 -2.7733,-0.66318 -5.6069,-0.66318 -8.3199,0 -12.8416,5.365726 -4.4614,5.305438 -4.4614,15.253133 v 31.109154 h -21.5834 V 62.998513 h 21.5834 V 74.0917 q 4.16,-6.631797 9.5257,-9.64625 5.426,-3.074742 12.9622,-3.074742 1.0852,0 2.3512,0.120578 1.2661,0.06029 3.6777,0.361734 z"
       style="font-weight:bold;fill:#1c7cac;fill-opacity:1"
       id="path899" /><path
       d="m 1219.8541,65.10863 v 16.398625 q -6.9333,-2.893875 -13.3842,-4.340813 -6.4509,-1.446937 -12.1784,-1.446937 -6.1495,0 -9.1639,1.567515 -2.9542,1.507227 -2.9542,4.702547 0,2.59243 2.2307,3.979078 2.291,1.386649 8.139,2.049828 l 3.7982,0.542602 q 16.5795,2.110117 22.307,6.933242 5.7274,4.823123 5.7274,15.132553 0,10.79174 -7.9581,16.21776 -7.9582,5.42602 -23.7539,5.42602 -6.6921,0 -13.8665,-1.08521 -7.1141,-1.02491 -14.6502,-3.13503 v -16.39862 q 6.4509,3.13503 13.2033,4.70254 6.8126,1.56752 13.8062,1.56752 6.3303,0 9.5256,-1.74838 3.1954,-1.74839 3.1954,-5.18486 0,-2.89388 -2.2307,-4.28053 -2.1704,-1.44693 -8.7419,-2.23069 l -3.7983,-0.48231 q -14.409,-1.80868 -20.1968,-6.692091 -5.7877,-4.883414 -5.7877,-14.831109 0,-10.731453 7.3552,-15.916313 7.3553,-5.184859 22.5481,-5.184859 5.9686,0 12.5402,0.904336 6.5715,0.904336 14.2885,2.833586 z"
       style="font-weight:bold;fill:#1c7cac;fill-opacity:1"
       id="path901" /></g><pattern
     id="pcb_pattern"
     width="250"
     height="250"
     viewBox="0 -300 300 300"
     overflow="visible"
     patternUnits="userSpaceOnUse"><g
       id="g37680"><rect
         id="pcb_background"
         y="-300"
         width="300"
         height="300"
         fill="#1c7cac" /><path
         id="pcb"
         fill="#93C5DD"
         stroke-width="2"
         stroke="#93C5DD"
         stroke-linecap="round"
         stroke-linejoin="round"
         d="M0-80v2h44.1c0.401,1.964,1.935,3.498,3.899,3.899c2.706,0.552,5.347-1.193,5.899-3.899s-1.193-5.347-3.899-5.899    C47.293-84.451,44.652-82.706,44.1-80H0z M82-32v2h122.1c0.401,1.964,1.935,3.498,3.899,3.899    c2.706,0.552,5.347-1.193,5.899-3.899c0.552-2.706-1.193-5.347-3.899-5.899c-2.706-0.552-5.347,1.193-5.899,3.899H82z M304-78v-2    h-42.1c-0.401-1.964-1.935-3.498-3.899-3.899c-2.706-0.552-5.347,1.193-5.899,3.899c-0.552,2.706,1.193,5.347,3.899,5.899    c2.706,0.552,5.347-1.193,5.899-3.899H304z M304-62v-2h-42.1c-0.401-1.964-1.935-3.498-3.899-3.899    c-2.706-0.552-5.347,1.193-5.899,3.899c-0.552,2.706,1.193,5.347,3.899,5.899c2.706,0.552,5.347-1.193,5.899-3.899H304z     M181.9-176c-0.401-1.964-1.935-3.498-3.899-3.899c-2.706-0.552-5.347,1.193-5.899,3.899c-0.552,2.706,1.193,5.347,3.899,5.899    c2.706,0.552,5.347-1.193,5.899-3.899h86.2c0.401,1.964,1.935,3.498,3.899,3.899c2.706,0.552,5.347-1.193,5.899-3.899    c0.552-2.706-1.193-5.347-3.899-5.899c-2.706-0.552-5.347,1.193-5.899,3.899H181.9z M0-224v2h12.1    c0.401,1.964,1.935,3.498,3.899,3.899c2.706,0.552,5.347-1.193,5.899-3.899c0.552-2.706-1.193-5.347-3.899-5.899    c-2.706-0.552-5.347,1.193-5.899,3.899C12.1-224,0-224,0-224z M284.1-190c0.401,1.964,1.935,3.498,3.899,3.899    c2.706,0.552,5.347-1.193,5.899-3.899c0.552-2.706-1.193-5.347-3.899-5.899c-2.706-0.552-5.347,1.193-5.899,3.899h-86.2    c-0.401-1.964-1.935-3.498-3.899-3.899c-2.706-0.552-5.347,1.193-5.899,3.899c-0.552,2.706,1.193,5.347,3.899,5.899    c2.706,0.552,5.347-1.193,5.899-3.899H284.1z M258-304h-2v12.1c-1.964,0.401-3.498,1.935-3.899,3.899    c-0.552,2.706,1.193,5.347,3.899,5.899c2.706,0.552,5.347-1.193,5.899-3.899c0.552-2.706-1.193-5.347-3.899-5.899V-304z     M194-138.1c1.964-0.401,3.498-1.935,3.899-3.899c0.552-2.706-1.193-5.347-3.899-5.899c-2.706-0.552-5.347,1.193-5.899,3.899    c-0.552,2.706,1.193,5.347,3.899,5.899v54.2c-1.964,0.401-3.498,1.935-3.899,3.899c-0.552,2.706,1.193,5.347,3.899,5.899    c2.706,0.552,5.347-1.193,5.899-3.899c0.552-2.706-1.193-5.347-3.899-5.899V-138.1z M245.899-285.999    c0.552-2.706-1.193-5.347-3.899-5.899c-2.706-0.552-5.347,1.193-5.899,3.899c-0.552,2.706,1.193,5.347,3.899,5.899v60.1h64v-2h-62    v-58.1C243.964-282.501,245.498-284.035,245.899-285.999z M261.899-269.999c0.552-2.706-1.193-5.347-3.899-5.899    c-2.706-0.552-5.347,1.193-5.899,3.899c-0.552,2.706,1.193,5.347,3.899,5.899v28.1h48v-2h-46v-26.1    C259.964-266.501,261.498-268.035,261.899-269.999z M130-170.1c1.964-0.401,3.498-1.935,3.899-3.899    c0.552-2.706-1.193-5.347-3.899-5.899c-2.706-0.552-5.347,1.193-5.899,3.899c-0.552,2.706,1.193,5.347,3.899,5.899V-94h16v10.1    c-1.964,0.401-3.498,1.935-3.899,3.899c-0.552,2.706,1.193,5.347,3.899,5.899c2.706,0.552,5.347-1.193,5.899-3.899    c0.552-2.706-1.193-5.347-3.899-5.899V-96h-16V-170.1L130-170.1z M112-192v48H85.9c-0.401-1.964-1.935-3.498-3.899-3.899    c-2.706-0.552-5.347,1.193-5.899,3.899s1.193,5.347,3.899,5.899c2.706,0.552,5.347-1.193,5.899-3.899H114v-48h10.1    c0.401,1.964,1.935,3.498,3.899,3.899c2.706,0.552,5.347-1.193,5.899-3.899c0.552-2.706-1.193-5.347-3.899-5.899    c-2.706-0.552-5.347,1.193-5.899,3.899C124.1-192,112-192,112-192z M178-62v-76.1c1.964-0.401,3.498-1.935,3.899-3.899    c0.552-2.706-1.193-5.347-3.899-5.899c-2.706-0.552-5.347,1.193-5.899,3.899c-0.552,2.706,1.193,5.347,3.899,5.899V-64h-58.1    c-0.401-1.964-1.935-3.498-3.899-3.899c-2.706-0.552-5.347,1.193-5.899,3.899s1.193,5.347,3.899,5.899    c2.706,0.552,5.347-1.193,5.899-3.899H178z M112-126v48h12.1c0.401,1.964,1.935,3.498,3.899,3.899    c2.706,0.552,5.347-1.193,5.899-3.899c0.552-2.706-1.193-5.347-3.899-5.899c-2.706-0.552-5.347,1.193-5.899,3.899H114v-48h-12.1    c-0.401-1.964-1.935-3.498-3.899-3.899c-2.706-0.552-5.347,1.193-5.899,3.899s1.193,5.347,3.899,5.899    c2.706,0.552,5.347-1.193,5.899-3.899H112z M66-32H48V0h2v-30h14v10.1c-1.964,0.401-3.498,1.935-3.899,3.899    c-0.552,2.706,1.193,5.347,3.899,5.899c2.706,0.552,5.347-1.193,5.899-3.899S68.706-19.348,66-19.9V-32z M224-128v98h48V0h2v-32    h-48v-94h10.1c0.401,1.964,1.935,3.498,3.899,3.899c2.706,0.552,5.347-1.193,5.899-3.899c0.552-2.706-1.193-5.347-3.899-5.899    c-2.706-0.552-5.347,1.193-5.899,3.899H224z M272-158v42.1c-1.964,0.401-3.498,1.935-3.899,3.899    c-0.552,2.706,1.193,5.347,3.899,5.899c2.706,0.552,5.347-1.193,5.899-3.899c0.552-2.706-1.193-5.347-3.899-5.899V-160h-12.1    c-0.401-1.964-1.935-3.498-3.899-3.899c-2.706-0.552-5.347,1.193-5.899,3.899c-0.552,2.706,1.193,5.347,3.899,5.899    c2.706,0.552,5.347-1.193,5.899-3.899H272z M210-62v-80h16v-18h-44.1c-0.401-1.964-1.935-3.498-3.899-3.899    c-2.706-0.552-5.347,1.193-5.899,3.899c-0.552,2.706,1.193,5.347,3.899,5.899c2.706,0.552,5.347-1.193,5.899-3.899H224v14h-16v80    h-10.1c-0.401-1.964-1.935-3.498-3.899-3.899c-2.706-0.552-5.347,1.193-5.899,3.899c-0.552,2.706,1.193,5.347,3.899,5.899    c2.706,0.552,5.347-1.193,5.899-3.899H210z M284.1-272H274v-32h-2v34h12.1c0.401,1.964,1.935,3.498,3.899,3.899    c2.706,0.552,5.347-1.193,5.899-3.899c0.552-2.706-1.193-5.347-3.899-5.899C287.293-276.451,284.652-274.706,284.1-272L284.1-272z     M101.899-205.999c0.552-2.706-1.193-5.347-3.899-5.899c-2.706-0.552-5.347,1.193-5.899,3.899s1.193,5.347,3.899,5.899v42.1H53.9    c-0.401-1.964-1.935-3.498-3.899-3.899c-2.706-0.552-5.347,1.193-5.899,3.899s1.193,5.347,3.899,5.899    c2.706,0.552,5.347-1.193,5.899-3.899H98v-44.1C99.964-202.501,101.498-204.035,101.899-205.999z M82-270v-34h-2v32H53.9    c-0.401-1.964-1.935-3.498-3.899-3.899c-2.706-0.552-5.347,1.193-5.899,3.899s1.193,5.347,3.899,5.899    c2.706,0.552,5.347-1.193,5.899-3.899H82z M117.899-269.999c0.552-2.706-1.193-5.347-3.899-5.899    c-2.706-0.552-5.347,1.193-5.899,3.899c-0.552,2.706,1.193,5.347,3.899,5.899v26.1H80v64H69.9    c-0.401-1.964-1.935-3.498-3.899-3.899c-2.706-0.552-5.347,1.193-5.899,3.899s1.193,5.347,3.899,5.899    c2.706,0.552,5.347-1.193,5.899-3.899H82v-64h32v-28.1C115.964-266.501,117.498-268.035,117.899-269.999z M130-222v-44.1    c1.964-0.401,3.498-1.935,3.899-3.899c0.552-2.706-1.193-5.347-3.899-5.899c-2.706-0.552-5.347,1.193-5.899,3.899    c-0.552,2.706,1.193,5.347,3.899,5.899v42.1h-26.1c-0.401-1.964-1.935-3.498-3.899-3.899c-2.706-0.552-5.347,1.193-5.899,3.899    s1.193,5.347,3.899,5.899c2.706,0.552,5.347-1.193,5.899-3.899H130z M144-286v42.1c-1.964,0.401-3.498,1.935-3.899,3.899    c-0.552,2.706,1.193,5.347,3.899,5.899c2.706,0.552,5.347-1.193,5.899-3.899c0.552-2.706-1.193-5.347-3.899-5.899V-288h-28.1    c-0.401-1.964-1.935-3.498-3.899-3.899c-2.706-0.552-5.347,1.193-5.899,3.899s1.193,5.347,3.899,5.899    c2.706,0.552,5.347-1.193,5.899-3.899H144z M96-16V0h2v-14h122.1c0.401,1.964,1.935,3.498,3.899,3.899    c2.706,0.552,5.347-1.193,5.899-3.899c0.552-2.706-1.193-5.347-3.899-5.899c-2.706-0.552-5.347,1.193-5.899,3.899H96z     M245.899-157.999c0.552-2.706-1.193-5.347-3.899-5.899c-2.706-0.552-5.347,1.193-5.899,3.899    c-0.552,2.706,1.193,5.347,3.899,5.899v12.1h16v30h-16v66h48V0h2v-48h-48v-62h16v-34h-16v-10.1    C243.964-154.501,245.498-156.035,245.899-157.999z M66-286v-18H48v2h16v14H53.9c-0.401-1.964-1.935-3.498-3.899-3.899    c-2.706-0.552-5.347,1.193-5.899,3.899s1.193,5.347,3.899,5.899c2.706,0.552,5.347-1.193,5.899-3.899H66z M194-254v-48h48v-2h-50    v48h-26.1c-0.401-1.964-1.935-3.498-3.899-3.899c-2.706-0.552-5.347,1.193-5.899,3.899c-0.552,2.706,1.193,5.347,3.899,5.899    c2.706,0.552,5.347-1.193,5.899-3.899H194z M176-302v30h-14v-10.1c1.964-0.401,3.498-1.935,3.899-3.899    c0.552-2.706-1.193-5.347-3.899-5.899c-2.706-0.552-5.347,1.193-5.899,3.899c-0.552,2.706,1.193,5.347,3.899,5.899v12.1h18v-34    h-62.17c0.227,0.644,0.227,1.347,0,1.991c-0.55,1.563-2.263,2.384-3.826,1.834c-1.563-0.55-2.384-2.263-1.834-3.826h-2.07    c-0.552,2.706,1.194,5.348,3.9,5.9c2.706,0.552,5.348-1.194,5.9-3.9C117.9-302,176-302,176-302z M137.83-206l32-32H210v-44.1    c1.964-0.401,3.498-1.935,3.899-3.899c0.552-2.706-1.193-5.347-3.899-5.899c-2.706-0.552-5.347,1.193-5.899,3.899    c-0.552,2.706,1.193,5.347,3.899,5.899v42.1h-39l-32,32h-19.1c-0.401-1.964-1.935-3.498-3.899-3.899    c-2.706-0.552-5.347,1.193-5.899,3.899s1.193,5.347,3.899,5.899c2.706,0.552,5.347-1.193,5.899-3.899    C117.9-206,137.83-206,137.83-206z M146-191.59L176.41-222H226v-60.1c1.964-0.401,3.498-1.935,3.899-3.899    c0.552-2.706-1.193-5.347-3.899-5.899c-2.706-0.552-5.347,1.193-5.899,3.899c-0.552,2.706,1.193,5.347,3.899,5.899v58.1h-48.41    L144-192.41v76.51c-1.964,0.401-3.498,1.935-3.899,3.899c-0.552,2.706,1.193,5.347,3.899,5.899    c2.706,0.552,5.347-1.193,5.899-3.899c0.552-2.706-1.193-5.347-3.899-5.899V-191.59z M162-182.59L185.41-206H300.1    c0.401,1.964,1.936,3.499,3.9,3.9v-2.07c-0.858-0.302-1.533-0.977-1.834-1.834c-0.55-1.563,0.272-3.276,1.834-3.826v-2.07    c-1.964,0.401-3.499,1.936-3.9,3.9H184.59L160-183.41v99.51c-1.964,0.401-3.498,1.935-3.899,3.899    c-0.552,2.706,1.193,5.347,3.899,5.899c2.706,0.552,5.347-1.193,5.899-3.899c0.552-2.706-1.193-5.347-3.899-5.899V-182.59z     M18-150.59l48-48V-254h32v-50h-2v48H64v56.59l-48,48v3.51c-1.964,0.401-3.498,1.935-3.899,3.899    c-0.552,2.706,1.193,5.347,3.899,5.899c2.706,0.552,5.347-1.193,5.899-3.899c0.552-2.706-1.193-5.347-3.899-5.899V-150.59z     M53.899-253.999c0.552-2.706-1.193-5.347-3.899-5.899c-2.706-0.552-5.347,1.193-5.899,3.899    c-0.552,2.706,1.193,5.347,3.899,5.899v42.69l-48,48V-94h28.1c0.401,1.964,1.935,3.498,3.899,3.899    c2.706,0.552,5.347-1.193,5.899-3.899s-1.193-5.347-3.899-5.899c-2.706-0.552-5.347,1.193-5.899,3.899H2v-62.59l48-48v-43.51    C51.964-250.501,53.498-252.035,53.899-253.999z M37.899-237.999c0.552-2.706-1.193-5.347-3.899-5.899    c-2.706-0.552-5.347,1.193-5.899,3.899c-0.552,2.706,1.193,5.347,3.899,5.899v18.69l-32,32v2.82l34-34v-19.51    C35.964-234.501,37.498-236.035,37.899-237.999z M8.59-272L0-263.4v2.81L9.41-270h2.69c0.401,1.964,1.935,3.498,3.899,3.899    c2.706,0.552,5.347-1.193,5.899-3.899c0.552-2.706-1.193-5.347-3.899-5.899c-2.706-0.552-5.347,1.193-5.899,3.899H8.59z     M297.41-254l6.59-6.59v-2.82l-7.41,7.41H277.9c-0.401-1.964-1.935-3.498-3.899-3.899c-2.706-0.552-5.347,1.193-5.899,3.899    c-0.552,2.706,1.193,5.347,3.899,5.899c2.706,0.552,5.347-1.193,5.899-3.899H297.41z M290-94v-72.59l14-14v-2.82l-16,16V-96h-26.1    c-0.401-1.964-1.935-3.498-3.899-3.899c-2.706-0.552-5.347,1.193-5.899,3.899c-0.552,2.706,1.193,5.347,3.899,5.899    c2.706,0.552,5.347-1.193,5.899-3.899H290z M66-62v-25.41L41.41-112H21.9c-0.401-1.964-1.935-3.498-3.899-3.899    c-2.706-0.552-5.347,1.193-5.899,3.899c-0.552,2.706,1.193,5.347,3.899,5.899c2.706,0.552,5.347-1.193,5.899-3.899h18.69L64-86.59    V-64H53.9c-0.401-1.964-1.935-3.498-3.899-3.899c-2.706-0.552-5.347,1.193-5.899,3.899s1.193,5.347,3.899,5.899    c2.706,0.552,5.347-1.193,5.899-3.899C53.9-62,66-62,66-62z M204.1-48H98v-55.4L57.4-144H37.9    c-0.401-1.964-1.935-3.498-3.899-3.899c-2.706-0.552-5.347,1.193-5.899,3.899c-0.552,2.706,1.193,5.347,3.899,5.899    c2.706,0.552,5.347-1.193,5.899-3.899h18.7L96-102.6V-46h108.1c0.401,1.964,1.935,3.498,3.899,3.899    c2.706,0.552,5.347-1.193,5.899-3.899c0.552-2.706-1.193-5.347-3.899-5.899C207.293-52.451,204.652-50.706,204.1-48L204.1-48z     M82-46v-49.41L49.41-128H21.9c-0.401-1.964-1.935-3.498-3.899-3.899c-2.706-0.552-5.347,1.193-5.899,3.899    c-0.552,2.706,1.193,5.347,3.899,5.899c2.706,0.552,5.347-1.193,5.899-3.899h26.69L80-94.59V-48H53.9    c-0.401-1.964-1.935-3.498-3.899-3.899c-2.706-0.552-5.347,1.193-5.899,3.899s1.193,5.347,3.899,5.899    c2.706,0.552,5.347-1.193,5.899-3.899C53.9-46,82-46,82-46z M34-304h-2v40.59L8.59-240H0v2h9.41L34-262.59v-1.61V-304z M2-46h14V0    h2v-48H0v46.17c0.001,0,0.002-0.001,0.003-0.001C1.565-2.382,3.279-1.562,3.83,0H5.9C5.499-1.964,3.964-3.499,2-3.9V-46z M34-64H0    v2h32V0h2v-63V-64z M18-286v-18h-2v16H0v2h17H18z M290-304h-2v18h16v-2h-14V-304z M258-16h-18V0h2v-14h14V0h2v-15V-16z M0-209.83    c0.644-0.227,1.347-0.227,1.991,0c1.563,0.55,2.384,2.263,1.834,3.826c-0.55,1.563-2.263,2.384-3.826,1.834v2.07    c0.329,0.067,0.665,0.101,1.001,0.101C3.762-202,6.001-204.239,6-207c-0.001-0.321-0.034-0.642-0.097-0.957    C5.362-210.676,2.719-212.441,0-211.9V-209.83z M80,0h2v-32h-2V0z M113.995-3.905C111.289-4.455,108.65-2.706,108.1,0h2.07    c0.302-0.858,0.977-1.533,1.834-1.834c1.563-0.55,3.276,0.272,3.826,1.834h2.07C117.5-1.968,115.963-3.505,113.995-3.905z     M3.83-304c0.23,0.649,0.23,1.356,0,2.005c-0.554,1.562-2.268,2.379-3.83,1.825v2.07c0.644,0.128,1.307,0.128,1.951,0    c2.72-0.539,4.487-3.18,3.949-5.9H3.83z M300.1-303.998c-0.552,2.706,1.195,5.346,3.9,5.898v-2.07    c-0.001,0-0.002-0.001-0.003-0.001c-1.562-0.553-2.38-2.267-1.827-3.829h-2.07C300.1-303.999,300.1-303.999,300.1-303.998z     M300.1,0h2.07c0.302-0.855,0.975-1.528,1.83-1.83V-3.9C302.036-3.499,300.501-1.964,300.1,0z M94-207c0-1.657,1.343-3,3-3    s3,1.343,3,3s-1.343,3-3,3S94-205.343,94-207z M94-223c0-1.657,1.343-3,3-3s3,1.343,3,3s-1.343,3-3,3S94-221.343,94-223z M110-207    c0-1.657,1.343-3,3-3s3,1.343,3,3s-1.343,3-3,3S110-205.343,110-207z M126-191c0-1.657,1.343-3,3-3c1.657,0,3,1.343,3,3    s-1.343,3-3,3C127.343-188,126-189.343,126-191z M126-175c0-1.657,1.343-3,3-3c1.657,0,3,1.343,3,3s-1.343,3-3,3    C127.343-172,126-173.343,126-175z M78-143c0-1.657,1.343-3,3-3s3,1.343,3,3s-1.343,3-3,3S78-141.343,78-143z M94-127    c0-1.657,1.343-3,3-3s3,1.343,3,3s-1.343,3-3,3S94-125.343,94-127z M126-79c0-1.657,1.343-3,3-3c1.657,0,3,1.343,3,3s-1.343,3-3,3    C127.343-76,126-77.343,126-79z M110-63c0-1.657,1.343-3,3-3s3,1.343,3,3s-1.343,3-3,3S110-61.343,110-63z M142-79    c0-1.657,1.343-3,3-3s3,1.343,3,3s-1.343,3-3,3S142-77.343,142-79z M142-111c0-1.657,1.343-3,3-3s3,1.343,3,3s-1.343,3-3,3    S142-109.343,142-111z M158-79c0-1.657,1.343-3,3-3s3,1.343,3,3s-1.343,3-3,3S158-77.343,158-79z M190-63c0-1.657,1.343-3,3-3    s3,1.343,3,3s-1.343,3-3,3S190-61.343,190-63z M190-79c0-1.657,1.343-3,3-3s3,1.343,3,3s-1.343,3-3,3S190-77.343,190-79z M174-143    c0-1.657,1.343-3,3-3s3,1.343,3,3s-1.343,3-3,3S174-141.343,174-143z M190-143c0-1.657,1.343-3,3-3s3,1.343,3,3s-1.343,3-3,3    S190-141.343,190-143z M206-47c0-1.657,1.343-3,3-3s3,1.343,3,3s-1.343,3-3,3S206-45.343,206-47z M206-31c0-1.657,1.343-3,3-3    s3,1.343,3,3s-1.343,3-3,3S206-29.343,206-31z M222-15c0-1.657,1.343-3,3-3l0,0c1.657,0,3,1.343,3,3s-1.343,3-3,3    S222-13.343,222-15z M238-159c0-1.657,1.343-3,3-3s3,1.343,3,3s-1.343,3-3,3S238-157.343,238-159z M238-127c0-1.657,1.343-3,3-3    s3,1.343,3,3s-1.343,3-3,3S238-125.343,238-127z M254-159c0-1.657,1.343-3,3-3s3,1.343,3,3s-1.343,3-3,3S254-157.343,254-159z     M270-175c0-1.657,1.343-3,3-3s3,1.343,3,3s-1.343,3-3,3S270-173.343,270-175z M174-175c0-1.657,1.343-3,3-3s3,1.343,3,3    s-1.343,3-3,3S174-173.343,174-175z M174-159c0-1.657,1.343-3,3-3s3,1.343,3,3s-1.343,3-3,3S174-157.343,174-159z M190-191    c0-1.657,1.343-3,3-3s3,1.343,3,3s-1.343,3-3,3S190-189.343,190-191z M286-191c0-1.657,1.343-3,3-3s3,1.343,3,3s-1.343,3-3,3    S286-189.343,286-191z M270-255c0-1.657,1.343-3,3-3s3,1.343,3,3s-1.343,3-3,3S270-253.343,270-255z M286-271c0-1.657,1.343-3,3-3    s3,1.343,3,3s-1.343,3-3,3S286-269.343,286-271z M254-271c0-1.657,1.343-3,3-3s3,1.343,3,3s-1.343,3-3,3S254-269.343,254-271z     M254-287c0-1.657,1.343-3,3-3s3,1.343,3,3s-1.343,3-3,3S254-285.343,254-287z M238-287c0-1.657,1.343-3,3-3s3,1.343,3,3    s-1.343,3-3,3S238-285.343,238-287z M222-287c0-1.657,1.343-3,3-3l0,0c1.657,0,3,1.343,3,3s-1.343,3-3,3S222-285.343,222-287z     M206-287c0-1.657,1.343-3,3-3s3,1.343,3,3s-1.343,3-3,3S206-285.343,206-287z M46-271c0-1.657,1.343-3,3-3s3,1.343,3,3    s-1.343,3-3,3S46-269.343,46-271z M14-271c0-1.657,1.343-3,3-3s3,1.343,3,3s-1.343,3-3,3S14-269.343,14-271z M46-255    c0-1.657,1.343-3,3-3s3,1.343,3,3s-1.343,3-3,3S46-253.343,46-255z M30-239c0-1.657,1.343-3,3-3c1.657,0,3,1.343,3,3s-1.343,3-3,3    C31.343-236,30-237.343,30-239z M46-287c0-1.657,1.343-3,3-3s3,1.343,3,3s-1.343,3-3,3S46-285.343,46-287z M46-47    c0-1.657,1.343-3,3-3s3,1.343,3,3s-1.343,3-3,3S46-45.343,46-47z M62-15c0-1.657,1.343-3,3-3s3,1.343,3,3s-1.343,3-3,3    S62-13.343,62-15z M46-79c0-1.657,1.343-3,3-3s3,1.343,3,3s-1.343,3-3,3S46-77.343,46-79z M46-63c0-1.657,1.343-3,3-3s3,1.343,3,3    s-1.343,3-3,3S46-61.343,46-63z M30-95c0-1.657,1.343-3,3-3c1.657,0,3,1.343,3,3s-1.343,3-3,3C31.343-92,30-93.343,30-95z     M110-271c0-1.657,1.343-3,3-3s3,1.343,3,3s-1.343,3-3,3S110-269.343,110-271z M126-271c0-1.657,1.343-3,3-3c1.657,0,3,1.343,3,3    s-1.343,3-3,3C127.343-268,126-269.343,126-271z M110-287c0-1.657,1.343-3,3-3s3,1.343,3,3s-1.343,3-3,3S110-285.343,110-287z     M142-239c0-1.657,1.343-3,3-3s3,1.343,3,3s-1.343,3-3,3S142-237.343,142-239z M158-255c0-1.657,1.343-3,3-3s3,1.343,3,3    s-1.343,3-3,3S158-253.343,158-255z M158-287c0-1.657,1.343-3,3-3s3,1.343,3,3s-1.343,3-3,3S158-285.343,158-287z M270-111    c0-1.657,1.343-3,3-3s3,1.343,3,3s-1.343,3-3,3S270-109.343,270-111z M254-95c0-1.657,1.343-3,3-3s3,1.343,3,3s-1.343,3-3,3    S254-93.343,254-95z M254-79c0-1.657,1.343-3,3-3s3,1.343,3,3s-1.343,3-3,3S254-77.343,254-79z M254-63c0-1.657,1.343-3,3-3    s3,1.343,3,3s-1.343,3-3,3S254-61.343,254-63z M14-127c0-1.657,1.343-3,3-3s3,1.343,3,3s-1.343,3-3,3S14-125.343,14-127z M14-111    c0-1.657,1.343-3,3-3s3,1.343,3,3s-1.343,3-3,3S14-109.343,14-111z M14-143c0-1.657,1.343-3,3-3s3,1.343,3,3s-1.343,3-3,3    S14-141.343,14-143z M30-143c0-1.657,1.343-3,3-3c1.657,0,3,1.343,3,3s-1.343,3-3,3C31.343-140,30-141.343,30-143z M14-223    c0-1.657,1.343-3,3-3s3,1.343,3,3s-1.343,3-3,3S14-221.343,14-223z M46-159c0-1.657,1.343-3,3-3s3,1.343,3,3s-1.343,3-3,3    S46-157.343,46-159z M62-175c0-1.657,1.343-3,3-3s3,1.343,3,3s-1.343,3-3,3S62-173.343,62-175z"
         /></g></pattern></svg>
