<?xml version="1.0" encoding="UTF-8" standalone="no"?>
<svg
   width="1144.9089"
   height="255"
   viewBox="0 0 302.92383 67.468751"
   version="1.1"
   id="svg1"
   xmlns="http://www.w3.org/2000/svg"
   xmlns:svg="http://www.w3.org/2000/svg">
  <defs
     id="defs1" />
  <g
     id="layer1"
     transform="translate(-33.554416,-22.753855)">
    <path
       d="m 42.56444,56.03845 q 0,12.083212 6.091387,18.924442 6.091387,6.752385 17.467947,6.752385 11.018245,0 18.542898,-6.663536 V 63.146222 H 65.944616 v -7.46316 h 27.232082 v 23.544497 q -12.54109,9.950878 -26.694608,9.950878 -15.049307,0 -23.738491,-8.618175 -8.689185,-8.70702 -8.689185,-23.988727 0,-16.347877 8.689185,-24.788355 8.689184,-8.529327 23.201017,-8.529327 21.678168,0 26.246712,19.013288 l -7.703812,2.043485 q -3.851908,-13.593614 -18.5429,-13.593614 -11.197402,0 -17.288789,6.308147 -6.091387,6.219303 -6.091387,19.013291 z"
       id="text4"
       style="font-size:35.2777px;line-height:0;font-family:Garuda;-inkscape-font-specification:'Garuda, Normal';stroke:#000000;stroke-width:0.999996;paint-order:fill markers stroke"
       aria-label="G"
      fill="currentColor"
        />
    <path
       d="m 105.01632,73.141547 q 0.36058,5.427105 3.2452,8.710171 2.95676,3.216061 8.14909,3.216061 6.92309,0 9.87984,-7.16914 l 6.49042,0.737011 q -3.31733,11.256224 -16.44238,11.256224 -8.43754,0 -13.12506,-4.623089 -4.687521,-4.690096 -4.687521,-13.333257 0,-8.375164 4.543291,-13.33326 4.6154,-5.025101 12.90872,-5.025101 7.50002,0 11.89908,4.221081 4.39905,4.154086 4.97597,11.457226 v 3.886073 z m 0.36058,-4.824096 h 20.91355 q -0.43269,-5.092095 -3.02885,-7.504142 -2.59617,-2.412047 -7.13945,-2.412047 -4.68753,0 -7.57216,2.814052 -2.81251,2.747055 -3.17309,7.102137 z"
       id="text5"
       style="font-size:35.2777px;line-height:0;font-family:Garuda;-inkscape-font-specification:'Garuda, Normal';fill-opacity:1;stroke-width:1.32291667;stroke-dasharray:none;stroke-opacity:1;paint-order:fill markers stroke"
       aria-label="e" 
       fill="#29c6a7"
       stroke="#29c6a7"/>
    <path
       d="M 171.61974,89.605936 V 25.991377 h 9.04746 l 32.96559,49.843252 V 25.991377 h 8.51001 v 63.614559 h -9.04751 L 180.12976,39.584992 v 50.020944 z"
       id="text7"
       style="font-size:35.2777px;line-height:0;font-family:Garuda;-inkscape-font-specification:'Garuda, Normal';stroke:#000000;stroke-width:0.264583;stroke-dasharray:none;paint-order:fill markers stroke"
       aria-label="N"
       fill="currentColor" />
    <path
       d="m 265.48302,89.485077 13.3036,-18.715382 -12.38854,-17.458384 h 7.81323 l 8.4467,12.011369 8.58748,-12.011369 h 7.32044 l -12.2477,17.248888 13.37394,18.924878 h -7.67243 l -9.57291,-13.477864 -9.57291,13.477864 z"
       id="text8"
       style="font-size:35.2777px;line-height:0;font-family:Garuda;-inkscape-font-specification:'Garuda, Normal';stroke:#000000;stroke-width:0.264583;stroke-dasharray:none;paint-order:fill markers stroke"
       aria-label="x"
       fill="currentColor" />
    <path
       d="m 320.23169,58.243241 q -4.27358,0 -6.21008,1.520421 -1.86962,1.454324 -2.93802,5.024004 l -5.60906,-0.793263 q 1.06834,-5.222319 4.94132,-7.866528 3.87291,-2.644214 10.61708,-2.644214 7.34519,0 10.35005,2.710316 3.07156,2.644218 3.07156,10.246323 v 15.072 q 0,3.635799 1.80293,7.007162 h -6.07648 q -0.86802,-1.850946 -1.13509,-4.230737 -6.07651,5.024001 -12.82073,5.024001 -5.20836,0 -8.54711,-2.578107 -3.33866,-2.644206 -3.33866,-7.205476 0,-4.759582 3.33866,-7.205476 3.33875,-2.511998 10.88422,-3.635788 6.67746,-0.925477 9.94941,-2.049269 v -1.454315 q 0,-3.43747 -2.07004,-5.156207 -2.06997,-1.784847 -6.20996,-1.784847 z m -2.53742,26.309908 q 5.27512,0 8.01287,-2.710318 2.80455,-2.710313 2.80455,-8.395372 v -2.049267 q -2.07004,0.859374 -7.2784,1.652635 -6.34358,1.057683 -8.68069,2.379791 -2.27028,1.322107 -2.27028,3.900213 0,2.512 1.8029,3.90021 1.80291,1.322108 5.60905,1.322108 z"
       id="text9"
       style="font-size:35.2777px;line-height:0;font-family:Garuda;-inkscape-font-specification:'Garuda, Normal';stroke:#000000;stroke-width:0.264583;stroke-dasharray:none;paint-order:fill markers stroke"
       aria-label="a"
       fill="currentColor" />
    <path
       d="M 136.91075,89.109634 V 53.149755 h 6.13837 v 4.998285 q 2.79015,-5.831335 10.9514,-5.831335 12.2767,0 12.2767,13.051077 v 23.741852 h -6.2081 V 67.172718 q 0,-9.857727 -7.46369,-9.857727 -9.48655,0 -9.48655,12.079187 v 19.715456 z"
       id="path9"
       style="font-size:35.2777px;line-height:0;font-family:Garuda;-inkscape-font-specification:'Garuda, Normal';stroke:#000000;stroke-width:0.264583;stroke-dasharray:none;paint-order:fill markers stroke"
       aria-label="n" 
       fill="currentColor"/>
    <path
       d="m 232.97068,73.141547 q 0.3606,5.427105 3.24522,8.710171 2.95675,3.216061 8.14907,3.216061 6.92312,0 9.87987,-7.16914 l 6.4904,0.737011 q -3.3173,11.256224 -16.44238,11.256224 -8.43751,0 -13.12508,-4.623089 -4.6875,-4.690096 -4.6875,-13.333257 0,-8.375164 4.54329,-13.33326 4.6154,-5.025101 12.90873,-5.025101 7.50001,0 11.89907,4.221081 4.39907,4.154086 4.97599,11.457226 v 3.886073 z m 0.3606,-4.824096 h 20.91356 q -0.4327,-5.092095 -3.02887,-7.504142 -2.59617,-2.412047 -7.13945,-2.412047 -4.68752,0 -7.57215,2.814052 -2.8125,2.747055 -3.17309,7.102137 z"
       id="path12"
       style="font-size:35.2777px;line-height:0;font-family:Garuda;-inkscape-font-specification:'Garuda, Normal';fill-opacity:1;stroke-width:1.32291667;stroke-dasharray:none;stroke-opacity:1;paint-order:fill markers stroke"
       aria-label="e"
       fill="#29c6a7"
       stroke="#29c6a7" />
  </g>
</svg>
